<svg width="2114" height="457" xmlns="http://www.w3.org/2000/svg" xmlns:xlink="http://www.w3.org/1999/xlink" xml:space="preserve" overflow="hidden"><g transform="translate(-1508 -1364)"><path d="M2453.66 1781.72C2447.14 1781.72 2441.88 1783.28 2437.87 1786.39 2433.86 1789.5 2431.85 1793.56 2431.85 1798.58 2431.85 1803.39 2433.86 1807.35 2437.87 1810.47 2441.88 1813.58 2446.94 1815.13 2453.06 1815.13 2458.37 1815.13 2463.03 1814.2 2467.04 1812.35 2471.05 1810.49 2474.66 1807.86 2477.87 1804.45L2477.87 1789.09C2474.56 1786.59 2470.95 1784.73 2467.04 1783.53 2463.13 1782.32 2458.67 1781.72 2453.66 1781.72ZM2030.35 1781.72C2023.83 1781.72 2018.57 1783.28 2014.55 1786.39 2010.54 1789.5 2008.54 1793.56 2008.54 1798.58 2008.54 1803.39 2010.54 1807.35 2014.55 1810.47 2018.57 1813.58 2023.63 1815.13 2029.74 1815.13 2035.06 1815.13 2039.72 1814.2 2043.73 1812.35 2047.74 1810.49 2051.35 1807.86 2054.56 1804.45L2054.56 1789.09C2051.25 1786.59 2047.64 1784.73 2043.73 1783.53 2039.82 1782.32 2035.36 1781.72 2030.35 1781.72ZM2257.65 1750.27C2252.03 1750.27 2246.94 1751.7 2242.38 1754.56 2237.82 1757.42 2234.21 1761.28 2231.55 1766.14 2228.9 1771.01 2227.57 1776.45 2227.57 1782.47 2227.57 1788.39 2228.9 1793.81 2231.55 1798.73 2234.21 1803.64 2237.85 1807.53 2242.46 1810.39 2247.07 1813.25 2252.18 1814.68 2257.8 1814.68 2263.31 1814.68 2268.32 1813.22 2272.84 1810.31 2277.35 1807.4 2280.96 1803.54 2283.66 1798.73 2286.37 1793.91 2287.72 1788.49 2287.72 1782.47 2287.72 1776.45 2286.4 1771.01 2283.74 1766.14 2281.08 1761.28 2277.47 1757.42 2272.91 1754.56 2268.35 1751.7 2263.26 1750.27 2257.65 1750.27ZM1761.17 1750.27C1756.06 1750.27 1751.42 1751.47 1747.26 1753.88 1743.1 1756.29 1739.69 1759.57 1737.04 1763.74 1734.38 1767.9 1732.75 1772.64 1732.15 1777.96L1787.79 1777.96C1787.29 1772.84 1785.84 1768.2 1783.43 1764.04 1781.03 1759.87 1777.92 1756.54 1774.11 1754.03 1770.3 1751.52 1765.99 1750.27 1761.17 1750.27ZM2174.13 1745.45 2180.75 1745.45 2180.75 1819.49 2174.13 1819.49ZM2456.51 1743.95C2465.44 1743.95 2472.33 1746.08 2477.19 1750.34 2482.05 1754.61 2484.49 1760.8 2484.49 1768.93L2484.49 1819.49 2477.87 1819.49 2477.87 1811.22C2474.46 1814.33 2470.65 1816.74 2466.44 1818.44 2462.23 1820.15 2457.62 1821 2452.6 1821 2447.19 1821 2442.43 1820.07 2438.32 1818.22 2434.21 1816.36 2431 1813.75 2428.69 1810.39 2426.39 1807.03 2425.23 1803.14 2425.23 1798.73 2425.23 1791.9 2427.89 1786.41 2433.2 1782.25 2438.52 1778.08 2445.59 1776 2454.41 1776 2463.23 1776 2471.05 1778.16 2477.87 1782.47L2477.87 1770.13C2477.87 1763.31 2476.01 1758.22 2472.3 1754.86 2468.6 1751.5 2463.28 1749.82 2456.36 1749.82 2452.96 1749.82 2449.4 1750.37 2445.69 1751.47 2441.98 1752.57 2437.72 1754.38 2432.9 1756.89L2430.05 1751.02C2434.76 1748.61 2439.27 1746.83 2443.58 1745.68 2447.89 1744.52 2452.2 1743.95 2456.51 1743.95ZM2361.22 1743.95C2366.83 1743.95 2371.77 1745.13 2376.03 1747.48 2380.29 1749.84 2383.6 1753.13 2385.96 1757.34 2388.31 1761.55 2389.49 1766.52 2389.49 1772.24L2389.49 1819.49 2382.88 1819.49 2382.88 1774.05C2382.88 1766.72 2380.82 1760.9 2376.71 1756.59 2372.6 1752.27 2366.93 1750.12 2359.72 1750.12 2354.7 1750.12 2350.19 1751.3 2346.18 1753.65 2342.17 1756.01 2339.01 1759.4 2336.71 1763.81L2336.71 1819.49 2330.09 1819.49 2330.09 1745.45 2336.71 1745.45 2336.71 1755.84C2342.72 1747.91 2350.89 1743.95 2361.22 1743.95ZM2257.8 1743.95C2264.61 1743.95 2270.81 1745.63 2276.37 1748.99 2281.93 1752.35 2286.35 1756.96 2289.6 1762.83 2292.86 1768.7 2294.49 1775.25 2294.49 1782.47 2294.49 1789.6 2292.86 1796.07 2289.6 1801.89 2286.35 1807.71 2281.93 1812.35 2276.37 1815.81 2270.81 1819.27 2264.56 1821 2257.65 1821 2250.83 1821 2244.61 1819.27 2239 1815.81 2233.38 1812.35 2228.95 1807.71 2225.69 1801.89 2222.43 1796.07 2220.8 1789.55 2220.8 1782.32 2220.8 1775.2 2222.43 1768.7 2225.69 1762.83 2228.95 1756.96 2233.41 1752.35 2239.07 1748.99 2244.74 1745.63 2250.98 1743.95 2257.8 1743.95ZM2033.2 1743.95C2042.13 1743.95 2049.02 1746.08 2053.88 1750.34 2058.74 1754.61 2061.17 1760.8 2061.17 1768.93L2061.17 1819.49 2054.56 1819.49 2054.56 1811.22C2051.15 1814.33 2047.34 1816.74 2043.13 1818.44 2038.92 1820.15 2034.31 1821 2029.29 1821 2023.88 1821 2019.12 1820.07 2015.01 1818.22 2010.9 1816.36 2007.69 1813.75 2005.38 1810.39 2003.08 1807.03 2001.92 1803.14 2001.92 1798.73 2001.92 1791.9 2004.58 1786.41 2009.89 1782.25 2015.21 1778.08 2022.27 1776 2031.1 1776 2039.92 1776 2047.74 1778.16 2054.56 1782.47L2054.56 1770.13C2054.56 1763.31 2052.7 1758.22 2048.99 1754.86 2045.28 1751.5 2039.97 1749.82 2033.05 1749.82 2029.64 1749.82 2026.08 1750.37 2022.37 1751.47 2018.67 1752.57 2014.4 1754.38 2009.59 1756.89L2006.73 1751.02C2011.45 1748.61 2015.96 1746.83 2020.27 1745.68 2024.58 1744.52 2028.89 1743.95 2033.2 1743.95ZM1932.34 1743.95C1937.95 1743.95 1942.89 1745.13 1947.15 1747.48 1951.41 1749.84 1954.72 1753.13 1957.08 1757.34 1959.43 1761.55 1960.61 1766.52 1960.61 1772.24L1960.61 1819.49 1953.99 1819.49 1953.99 1774.05C1953.99 1766.72 1951.94 1760.9 1947.83 1756.59 1943.72 1752.27 1938.05 1750.12 1930.83 1750.12 1925.82 1750.12 1921.31 1751.3 1917.3 1753.65 1913.29 1756.01 1910.13 1759.4 1907.82 1763.81L1907.82 1819.49 1901.21 1819.49 1901.21 1745.45 1907.82 1745.45 1907.82 1755.84C1913.84 1747.91 1922.01 1743.95 1932.34 1743.95ZM1761.33 1743.95C1767.74 1743.95 1773.46 1745.65 1778.47 1749.06 1783.48 1752.47 1787.47 1757.01 1790.43 1762.68 1793.38 1768.35 1794.86 1774.65 1794.86 1781.57L1794.86 1784.28 1731.85 1784.28C1732.15 1790 1733.65 1795.14 1736.36 1799.7 1739.07 1804.27 1742.65 1807.91 1747.11 1810.62 1751.58 1813.32 1756.51 1814.68 1761.93 1814.68 1766.14 1814.68 1770.3 1814 1774.41 1812.65 1778.52 1811.29 1782.03 1809.46 1784.94 1807.15L1788.85 1812.42C1784.84 1815.33 1780.57 1817.49 1776.06 1818.89 1771.55 1820.3 1766.84 1821 1761.93 1821 1755.11 1821 1748.89 1819.29 1743.28 1815.88 1737.66 1812.47 1733.23 1807.86 1729.97 1802.04 1726.71 1796.22 1725.08 1789.7 1725.08 1782.47 1725.08 1775.25 1726.66 1768.73 1729.82 1762.91 1732.98 1757.09 1737.31 1752.47 1742.83 1749.06 1748.34 1745.65 1754.51 1743.95 1761.33 1743.95ZM1592.57 1743.95C1598.19 1743.95 1603.13 1745.13 1607.39 1747.48 1611.65 1749.84 1614.96 1753.13 1617.31 1757.34 1619.67 1761.55 1620.85 1766.52 1620.85 1772.24L1620.85 1819.49 1614.23 1819.49 1614.23 1774.05C1614.23 1766.72 1612.17 1760.9 1608.06 1756.59 1603.95 1752.27 1598.29 1750.12 1591.07 1750.12 1586.06 1750.12 1581.55 1751.3 1577.54 1753.65 1573.53 1756.01 1570.37 1759.4 1568.06 1763.81L1568.06 1819.49 1561.44 1819.49 1561.44 1745.45 1568.06 1745.45 1568.06 1755.84C1574.08 1747.91 1582.25 1743.95 1592.57 1743.95ZM1862.19 1743.8C1864.2 1743.8 1866.35 1744 1868.66 1744.4L1868.66 1751.17C1867.55 1750.77 1866.45 1750.49 1865.35 1750.34 1864.25 1750.19 1863.19 1750.12 1862.19 1750.12 1857.28 1750.12 1853.04 1751.6 1849.48 1754.56 1845.92 1757.52 1843.14 1761.8 1841.14 1767.42L1841.14 1819.34 1834.52 1819.34 1834.52 1745.3 1841.14 1745.3 1841.14 1757.04C1843.24 1752.93 1846.12 1749.69 1849.78 1747.33 1853.44 1744.97 1857.58 1743.8 1862.19 1743.8ZM2116.91 1724.68 2116.91 1745.45 2139.77 1745.45 2139.77 1751.47 2116.91 1751.47 2116.91 1802.79C2116.91 1807 2117.84 1810.04 2119.69 1811.9 2121.55 1813.75 2124.63 1814.68 2128.94 1814.68 2131.25 1814.68 2133.2 1814.5 2134.81 1814.15 2136.41 1813.8 2138.07 1813.27 2139.77 1812.57L2139.77 1819.04C2137.87 1819.75 2135.91 1820.25 2133.91 1820.55 2131.9 1820.85 2129.85 1821 2127.74 1821 2122.13 1821 2117.81 1819.6 2114.81 1816.79 2111.8 1813.98 2110.3 1810.06 2110.3 1805.05L2110.3 1751.47 2094.05 1751.47 2094.05 1745.45 2110.3 1745.45 2110.3 1726.79ZM1671.32 1724.68 1671.32 1745.45 1694.18 1745.45 1694.18 1751.47 1671.32 1751.47 1671.32 1802.79C1671.32 1807 1672.25 1810.04 1674.1 1811.9 1675.96 1813.75 1679.04 1814.68 1683.35 1814.68 1685.66 1814.68 1687.61 1814.5 1689.22 1814.15 1690.82 1813.8 1692.48 1813.27 1694.18 1812.57L1694.18 1819.04C1692.28 1819.75 1690.32 1820.25 1688.32 1820.55 1686.31 1820.85 1684.25 1821 1682.15 1821 1676.53 1821 1672.22 1819.6 1669.22 1816.79 1666.21 1813.98 1664.7 1810.06 1664.7 1805.05L1664.7 1751.47 1648.46 1751.47 1648.46 1745.45 1664.7 1745.45 1664.7 1726.79ZM2177.59 1717.31C2179.19 1717.31 2180.52 1717.86 2181.58 1718.96 2182.63 1720.07 2183.16 1721.42 2183.16 1723.03 2183.16 1724.63 2182.63 1725.99 2181.58 1727.09 2180.52 1728.19 2179.19 1728.75 2177.59 1728.75 2175.89 1728.75 2174.48 1728.19 2173.38 1727.09 2172.28 1725.99 2171.73 1724.63 2171.73 1723.03 2171.73 1721.42 2172.28 1720.07 2173.38 1718.96 2174.48 1717.86 2175.89 1717.31 2177.59 1717.31ZM1508 1714.15 1514.92 1714.15 1514.92 1819.49 1508 1819.49ZM2537.22 1712.49 2537.22 1819.49 2530.6 1819.49 2530.6 1714.15ZM3111.74 1669.81 3622 1669.81 3622 1686.32 3111.74 1686.32ZM1508 1669.81 2892.35 1669.81 2892.35 1686.32 1508 1686.32ZM2398.34 1537.37C2382.4 1537.37 2369.53 1541.17 2359.72 1548.78 2349.91 1556.38 2345.01 1566.32 2345.01 1578.59 2345.01 1590.37 2349.91 1600.06 2359.72 1607.67 2369.53 1615.28 2381.91 1619.08 2396.87 1619.08 2409.87 1619.08 2421.27 1616.81 2431.08 1612.27 2440.89 1607.73 2449.71 1601.29 2457.56 1592.95L2457.56 1555.4C2449.47 1549.27 2440.64 1544.73 2431.08 1541.78 2421.52 1538.84 2410.6 1537.37 2398.34 1537.37ZM2998.77 1471.48C2987 1471.23 2976.39 1473.93 2966.95 1479.58 2957.51 1485.22 2950.03 1492.83 2944.52 1502.4 2939 1511.97 2936.36 1522.77 2936.61 1534.79 2936.36 1547.06 2939.06 1558.04 2944.7 1567.73 2950.34 1577.43 2957.82 1585.16 2967.14 1590.92 2976.45 1596.69 2987 1599.45 2998.77 1599.2 3009.31 1599.45 3019.06 1597.61 3028.01 1593.68 3036.96 1589.76 3044.38 1584.24 3050.26 1577.12L3050.26 1493.2C3044.38 1486.33 3036.9 1480.93 3027.83 1477 3018.75 1473.07 3009.07 1471.23 2998.77 1471.48ZM1966.64 1448.66 1982.82 1448.66 1982.82 1629.75 1966.64 1629.75ZM2405.33 1444.98C2427.16 1444.98 2444.01 1450.19 2455.91 1460.62 2467.8 1471.05 2473.75 1486.2 2473.75 1506.08L2473.75 1629.75 2457.56 1629.75 2457.56 1609.51C2449.22 1617.12 2439.91 1623.01 2429.61 1627.18 2419.31 1631.35 2408.03 1633.44 2395.77 1633.44 2382.53 1633.44 2370.88 1631.17 2360.83 1626.63 2350.77 1622.09 2342.93 1615.71 2337.29 1607.49 2331.65 1599.27 2328.83 1589.76 2328.83 1578.96 2328.83 1562.27 2335.32 1548.84 2348.32 1538.65 2361.32 1528.47 2378.6 1523.38 2400.18 1523.38 2421.76 1523.38 2440.89 1528.66 2457.56 1539.21L2457.56 1509.02C2457.56 1492.34 2453.03 1479.88 2443.95 1471.66 2434.88 1463.44 2421.88 1459.33 2404.96 1459.33 2396.63 1459.33 2387.92 1460.68 2378.85 1463.38 2369.78 1466.08 2359.35 1470.5 2347.58 1476.63L2340.6 1462.28C2352.12 1456.39 2363.16 1452.03 2373.7 1449.21 2384.24 1446.39 2394.79 1444.98 2405.33 1444.98ZM2104.04 1444.98C2117.04 1444.98 2128.69 1448.23 2138.99 1454.73 2149.29 1461.23 2157.13 1470.01 2162.53 1481.05 2170.13 1469.27 2179.14 1460.31 2189.56 1454.18 2199.98 1448.05 2211.94 1444.98 2225.42 1444.98 2238.42 1444.98 2249.82 1447.86 2259.63 1453.63 2269.44 1459.39 2277.1 1467.49 2282.62 1477.92 2288.14 1488.35 2290.9 1500.44 2290.9 1514.18L2290.9 1629.75 2274.71 1629.75 2274.71 1518.59C2274.71 1500.44 2270.05 1486.14 2260.73 1475.71 2251.42 1465.28 2238.42 1460.07 2221.75 1460.07 2209.73 1460.07 2199.19 1463.2 2190.11 1469.46 2181.04 1475.71 2173.44 1484.24 2167.31 1495.04 2168.04 1498.23 2168.6 1501.36 2168.96 1504.42 2169.33 1507.49 2169.52 1510.74 2169.52 1514.18L2169.52 1629.75 2153.33 1629.75 2153.33 1518.59C2153.33 1500.44 2148.67 1486.14 2139.35 1475.71 2130.04 1465.28 2117.04 1460.07 2100.37 1460.07 2089.09 1460.07 2079.09 1462.83 2070.39 1468.35 2061.68 1473.87 2054.27 1481.66 2048.14 1491.72L2048.14 1629.75 2031.95 1629.75 2031.95 1448.66 2048.14 1448.66 2048.14 1472.22C2062.11 1454.06 2080.75 1444.98 2104.04 1444.98ZM1846.84 1444.98C1860.57 1444.98 1872.65 1447.86 1883.07 1453.63 1893.49 1459.39 1901.58 1467.43 1907.34 1477.74 1913.11 1488.04 1915.99 1500.19 1915.99 1514.18L1915.99 1629.75 1899.8 1629.75 1899.8 1518.59C1899.8 1500.68 1894.78 1486.45 1884.72 1475.9 1874.67 1465.35 1860.81 1460.07 1843.16 1460.07 1830.9 1460.07 1819.86 1462.95 1810.05 1468.72 1800.25 1474.49 1792.52 1482.77 1786.88 1493.56L1786.88 1629.75 1770.7 1629.75 1770.7 1448.66 1786.88 1448.66 1786.88 1474.06C1801.6 1454.67 1821.58 1444.98 1846.84 1444.98ZM2829.59 1442.4 2866.37 1442.4 2866.74 1629.75 2829.96 1629.75ZM2995.46 1439.09C3005.27 1439.33 3014.95 1441.05 3024.52 1444.24 3034.08 1447.43 3042.78 1452.09 3050.63 1458.23L3051 1442.4 3087.05 1442.4 3087.05 1632.7C3087.05 1657.24 3079.69 1676.01 3064.98 1689.02 3050.26 1702.02 3029.05 1708.52 3001.34 1708.52 2987.61 1708.52 2974.31 1706.87 2961.44 1703.56 2948.56 1700.24 2936.73 1695.76 2925.94 1690.12L2940.29 1661.04C2951.08 1666.69 2961.25 1670.86 2970.82 1673.56 2980.38 1676.26 2990.19 1677.61 3000.24 1677.61 3016.67 1677.61 3029.11 1673.8 3037.57 1666.19 3046.03 1658.59 3050.26 1647.42 3050.26 1632.7L3050.26 1611.35C3033.83 1624.36 3015.2 1630.86 2994.36 1630.86 2976.95 1630.86 2961.13 1626.69 2946.91 1618.34 2932.68 1610 2921.34 1598.47 2912.88 1583.74 2904.42 1569.02 2900.19 1552.83 2900.19 1535.16 2900.19 1517.24 2904.42 1501.05 2912.88 1486.57 2921.34 1472.09 2932.68 1460.62 2946.91 1452.16 2961.13 1443.69 2977.31 1439.33 2995.46 1439.09ZM3541.08 1438.72C3554.81 1438.72 3567.87 1440.68 3580.25 1444.61 3592.64 1448.54 3604.59 1454.67 3616.11 1463.01L3597.72 1487.31C3587.18 1480.44 3577.13 1475.41 3567.56 1472.22 3558 1469.03 3548.19 1467.43 3538.14 1467.43 3527.1 1467.43 3518.09 1469.82 3511.1 1474.61 3504.11 1479.39 3500.62 1485.59 3500.62 1493.2 3500.62 1500.07 3503.07 1505.34 3507.98 1509.02 3512.88 1512.71 3520.73 1515.4 3531.52 1517.12L3565.36 1521.91C3583.99 1524.36 3598.09 1530 3607.66 1538.84 3617.22 1547.67 3622 1559.45 3622 1574.17 3622 1585.46 3618.57 1595.58 3611.7 1604.54 3604.84 1613.5 3595.52 1620.55 3583.75 1625.71 3571.98 1630.86 3558.61 1633.44 3543.65 1633.44 3527.47 1633.44 3512.33 1631.04 3498.23 1626.26 3484.13 1621.47 3471.93 1614.66 3461.63 1605.83L3481.86 1581.17C3491.42 1589.02 3501.36 1594.91 3511.65 1598.84 3521.95 1602.76 3532.25 1604.73 3542.55 1604.73 3555.79 1604.73 3566.58 1602.15 3574.92 1597 3583.26 1591.84 3587.43 1585.22 3587.43 1577.12 3587.43 1570.25 3584.97 1564.91 3580.07 1561.11 3575.16 1557.3 3567.56 1554.67 3557.26 1553.19L3523.42 1548.04C3504.79 1545.34 3490.81 1539.57 3481.49 1530.74 3472.18 1521.91 3467.52 1510.13 3467.52 1495.41 3467.52 1484.12 3470.58 1474.24 3476.71 1465.77 3482.84 1457.31 3491.42 1450.68 3502.46 1445.9 3513.49 1441.11 3526.37 1438.72 3541.08 1438.72ZM2628.93 1405.96 2628.93 1491.72 2703.59 1491.72C2718.8 1491.72 2730.94 1487.86 2740.01 1480.13 2749.08 1472.4 2753.62 1462.03 2753.62 1449.03 2753.62 1436.02 2749.08 1425.59 2740.01 1417.74 2730.94 1409.89 2718.8 1405.96 2703.59 1405.96ZM1625.7 1387.93 1567.96 1527.43 1683.08 1527.43ZM3395.97 1385.72 3395.97 1442.4 3451.14 1442.4 3451.14 1473.32 3395.97 1473.32 3395.97 1574.91C3395.97 1584.48 3398.05 1591.29 3402.22 1595.34 3406.39 1599.39 3413.5 1601.41 3423.55 1601.41 3428.46 1601.41 3432.93 1601.04 3436.98 1600.31 3441.03 1599.57 3445.5 1598.35 3450.4 1596.63L3450.4 1627.91C3445.5 1629.63 3439.74 1630.92 3433.12 1631.78 3426.5 1632.64 3420.49 1633.07 3415.09 1633.07 3396.95 1633.07 3383.09 1628.83 3373.53 1620.37 3363.97 1611.9 3359.19 1599.57 3359.19 1583.38L3359.19 1473.32 3319.46 1473.32 3319.46 1442.4 3359.19 1442.4 3359.19 1394.55ZM1975.1 1379.83C1979.02 1379.83 1982.27 1381.18 1984.85 1383.88 1987.42 1386.58 1988.71 1389.89 1988.71 1393.81 1988.71 1397.74 1987.42 1401.05 1984.85 1403.75 1982.27 1406.45 1979.02 1407.8 1975.1 1407.8 1970.93 1407.8 1967.5 1406.45 1964.8 1403.75 1962.1 1401.05 1960.75 1397.74 1960.75 1393.81 1960.75 1389.89 1962.1 1386.58 1964.8 1383.88 1967.5 1381.18 1970.93 1379.83 1975.1 1379.83ZM2589.94 1372.1 2706.9 1372.1C2724.07 1372.1 2739.09 1375.29 2751.96 1381.67 2764.84 1388.05 2774.83 1396.94 2781.94 1408.35 2789.05 1419.76 2792.61 1433.2 2792.61 1448.66 2792.61 1465.35 2787.82 1479.82 2778.26 1492.09 2768.7 1504.36 2755.95 1513.2 2740.01 1518.59L2797.39 1629.75 2753.98 1629.75 2701.02 1524.12 2628.93 1524.12 2628.93 1629.75 2589.94 1629.75ZM1615.4 1372.1 1636.37 1372.1 1743.4 1629.75 1725.01 1629.75 1689.34 1542.52 1561.7 1542.52 1525.66 1629.75 1508 1629.75ZM2536.27 1368.05 2536.27 1629.75 2520.08 1629.75 2520.08 1372.1ZM2847.98 1366.58C2854.36 1366.82 2859.75 1369.15 2864.17 1373.57 2868.58 1377.99 2870.79 1383.26 2870.79 1389.4 2870.79 1395.53 2868.58 1400.81 2864.17 1405.22 2859.75 1409.64 2854.36 1411.97 2847.98 1412.22 2841.85 1412.22 2836.58 1409.95 2832.17 1405.41 2827.75 1400.87 2825.54 1395.53 2825.54 1389.4 2825.54 1383.26 2827.75 1377.93 2832.17 1373.39 2836.58 1368.85 2841.85 1366.58 2847.98 1366.58ZM3165.81 1364 3165.81 1461.54C3180.27 1446.33 3199.03 1438.72 3222.08 1438.72 3236.3 1438.72 3248.93 1441.79 3259.97 1447.92 3271 1454.06 3279.58 1462.65 3285.72 1473.69 3291.85 1484.73 3294.91 1497.49 3294.91 1511.97L3294.91 1629.75 3258.13 1629.75 3258.13 1518.23C3258.13 1503.5 3253.96 1491.91 3245.62 1483.44 3237.29 1474.98 3226.01 1470.74 3211.78 1470.74 3201.73 1470.74 3192.84 1472.83 3185.12 1477 3177.39 1481.17 3170.96 1487.18 3165.81 1495.04L3165.81 1629.75 3128.66 1629.75 3128.66 1372.1Z" fill="#FFFFFF" fill-rule="evenodd"/></g></svg>