<svg width="2942" height="227" xmlns="http://www.w3.org/2000/svg" xmlns:xlink="http://www.w3.org/1999/xlink" xml:space="preserve" overflow="hidden"><defs><linearGradient x1="223" y1="2116.5" x2="3165" y2="2116.5" gradientUnits="userSpaceOnUse" spreadMethod="reflect" id="fill0"><stop offset="0" stop-color="#0BE183"/><stop offset="0.0123457" stop-color="#0BE084"/><stop offset="0.0246914" stop-color="#0BE086"/><stop offset="0.037037" stop-color="#0BE088"/><stop offset="0.0493827" stop-color="#0BE08A"/><stop offset="0.0617284" stop-color="#0BE08C"/><stop offset="0.0740741" stop-color="#0BE08E"/><stop offset="0.0864198" stop-color="#0BE08F"/><stop offset="0.0987654" stop-color="#0BE091"/><stop offset="0.111111" stop-color="#0BDF93"/><stop offset="0.123457" stop-color="#0BDF94"/><stop offset="0.135802" stop-color="#0BDF96"/><stop offset="0.148148" stop-color="#0CDF98"/><stop offset="0.160494" stop-color="#0CDE99"/><stop offset="0.17284" stop-color="#0CDE9B"/><stop offset="0.185185" stop-color="#0CDE9D"/><stop offset="0.197531" stop-color="#0CDD9E"/><stop offset="0.209877" stop-color="#0CDDA0"/><stop offset="0.222222" stop-color="#0CDDA1"/><stop offset="0.234568" stop-color="#0CDCA3"/><stop offset="0.246914" stop-color="#0CDCA4"/><stop offset="0.259259" stop-color="#0CDBA6"/><stop offset="0.271605" stop-color="#0CDBA7"/><stop offset="0.283951" stop-color="#0CDAA9"/><stop offset="0.296296" stop-color="#0CDAAA"/><stop offset="0.308642" stop-color="#0CD9AB"/><stop offset="0.320988" stop-color="#0DD9AD"/><stop offset="0.333333" stop-color="#0DD8AE"/><stop offset="0.345679" stop-color="#0DD7AF"/><stop offset="0.358025" stop-color="#0DD7B1"/><stop offset="0.37037" stop-color="#0DD6B2"/><stop offset="0.382716" stop-color="#0DD5B3"/><stop offset="0.395062" stop-color="#0DD5B5"/><stop offset="0.407407" stop-color="#0DD4B6"/><stop offset="0.419753" stop-color="#0DD3B7"/><stop offset="0.432099" stop-color="#0DD3B8"/><stop offset="0.444444" stop-color="#0DD2B9"/><stop offset="0.45679" stop-color="#0DD1BA"/><stop offset="0.469136" stop-color="#0DD0BB"/><stop offset="0.481481" stop-color="#0DCFBD"/><stop offset="0.493827" stop-color="#0DCFBE"/><stop offset="0.506173" stop-color="#0DCEBF"/><stop offset="0.518519" stop-color="#0DCDC0"/><stop offset="0.530864" stop-color="#0ECCC1"/><stop offset="0.54321" stop-color="#0ECBC2"/><stop offset="0.555556" stop-color="#0ECAC3"/><stop offset="0.567901" stop-color="#0EC9C3"/><stop offset="0.580247" stop-color="#0EC8C4"/><stop offset="0.592593" stop-color="#0EC7C5"/><stop offset="0.604938" stop-color="#0EC6C6"/><stop offset="0.617284" stop-color="#0EC5C7"/><stop offset="0.62963" stop-color="#0EC4C8"/><stop offset="0.641975" stop-color="#0EC3C9"/><stop offset="0.654321" stop-color="#0EC2C9"/><stop offset="0.666667" stop-color="#0EC1CA"/><stop offset="0.679012" stop-color="#0EC0CB"/><stop offset="0.691358" stop-color="#0EBFCB"/><stop offset="0.703704" stop-color="#0EBECC"/><stop offset="0.716049" stop-color="#0EBDCD"/><stop offset="0.728395" stop-color="#0EBCCD"/><stop offset="0.740741" stop-color="#0EBACE"/><stop offset="0.753086" stop-color="#0EB9CF"/><stop offset="0.765432" stop-color="#0EB8CF"/><stop offset="0.777778" stop-color="#0EB7D0"/><stop offset="0.790123" stop-color="#0EB5D0"/><stop offset="0.802469" stop-color="#0EB4D1"/><stop offset="0.814815" stop-color="#0EB3D1"/><stop offset="0.82716" stop-color="#0EB2D1"/><stop offset="0.839506" stop-color="#0EB0D2"/><stop offset="0.851852" stop-color="#0EAFD2"/><stop offset="0.864198" stop-color="#0EAED3"/><stop offset="0.876543" stop-color="#0EACD3"/><stop offset="0.888889" stop-color="#0EABD3"/><stop offset="0.901235" stop-color="#0EA9D3"/><stop offset="0.91358" stop-color="#0EA8D4"/><stop offset="0.925926" stop-color="#0EA7D4"/><stop offset="0.938272" stop-color="#0EA5D4"/><stop offset="0.950617" stop-color="#0EA4D4"/><stop offset="0.962963" stop-color="#0EA2D4"/><stop offset="0.975309" stop-color="#0EA1D4"/><stop offset="0.987654" stop-color="#0E9FD4"/><stop offset="1" stop-color="#0F9ED5"/></linearGradient></defs><g transform="translate(-223 -2003)"><path d="M3054.99 2121.84C3046.28 2121.84 3039.34 2123.69 3034.18 2127.41 3029.02 2131.13 3026.44 2136.06 3026.44 2142.21 3026.44 2148.19 3028.98 2153 3034.06 2156.64 3039.14 2160.27 3045.79 2162.09 3054.02 2162.09 3060.47 2162.09 3066.4 2161.16 3071.8 2159.3 3077.21 2157.45 3082.17 2154.49 3086.69 2150.45L3086.69 2129.6C3082.01 2126.85 3077.13 2124.87 3072.05 2123.65 3066.97 2122.44 3061.28 2121.84 3054.99 2121.84ZM2500.49 2121.84C2491.78 2121.84 2484.85 2123.69 2479.69 2127.41 2474.52 2131.13 2471.94 2136.06 2471.94 2142.21 2471.94 2148.19 2474.48 2153 2479.57 2156.64 2484.65 2160.27 2491.3 2162.09 2499.53 2162.09 2505.98 2162.09 2511.91 2161.16 2517.31 2159.3 2522.72 2157.45 2527.68 2154.49 2532.19 2150.45L2532.19 2129.6C2527.51 2126.85 2522.63 2124.87 2517.55 2123.65 2512.47 2122.44 2506.79 2121.84 2500.49 2121.84ZM857.178 2121.84C848.469 2121.84 841.531 2123.69 836.37 2127.41 831.208 2131.13 828.627 2136.06 828.627 2142.21 828.627 2148.19 831.168 2153 836.249 2156.64 841.33 2160.27 847.984 2162.09 856.211 2162.09 862.663 2162.09 868.592 2161.16 873.995 2159.3 879.398 2157.45 884.359 2154.49 888.876 2150.45L888.876 2129.6C884.197 2126.85 879.318 2124.87 874.237 2123.65 869.156 2122.44 863.47 2121.84 857.178 2121.84ZM1314.56 2073.82C1306.82 2073.65 1299.85 2075.43 1293.63 2079.15 1287.43 2082.87 1282.51 2087.88 1278.88 2094.19 1275.25 2100.49 1273.51 2107.61 1273.67 2115.53 1273.51 2123.61 1275.29 2130.85 1279 2137.24 1282.71 2143.62 1287.63 2148.72 1293.76 2152.51 1299.89 2156.31 1306.82 2158.13 1314.56 2157.97 1321.5 2158.13 1327.91 2156.92 1333.8 2154.33 1339.69 2151.75 1344.57 2148.11 1348.44 2143.42L1348.44 2088.13C1344.57 2083.6 1339.65 2080.04 1333.68 2077.45 1327.71 2074.87 1321.34 2073.65 1314.56 2073.82ZM2785.77 2073.57C2778.35 2073.74 2771.57 2075.72 2765.44 2079.51 2759.31 2083.32 2754.43 2088.37 2750.8 2094.67 2747.17 2100.98 2745.36 2108.25 2745.36 2116.5 2745.36 2124.42 2747.17 2131.62 2750.8 2138.08 2754.43 2144.55 2759.27 2149.68 2765.32 2153.48 2771.37 2157.28 2778.19 2159.18 2785.77 2159.18 2793.35 2159.18 2800.2 2157.28 2806.33 2153.48 2812.46 2149.68 2817.3 2144.55 2820.85 2138.08 2824.4 2131.62 2826.17 2124.42 2826.17 2116.5 2826.17 2108.42 2824.36 2101.18 2820.73 2094.79 2817.1 2088.41 2812.22 2083.27 2806.09 2079.39 2799.96 2075.51 2793.19 2073.57 2785.77 2073.57ZM2147.72 2073.09C2141.59 2073.09 2135.94 2074.46 2130.78 2077.21 2125.62 2079.96 2121.34 2083.8 2117.96 2088.73 2114.57 2093.66 2112.23 2099.36 2110.94 2105.83L2183.77 2105.83C2182.64 2099.52 2180.38 2093.91 2176.99 2088.97 2173.61 2084.04 2169.37 2080.16 2164.29 2077.33 2159.21 2074.5 2153.68 2073.09 2147.72 2073.09ZM2676.8 2054.66 2701 2054.66 2701.24 2178.1 2677.05 2178.1ZM1204.88 2054.66 1229.07 2054.66 1229.31 2178.1 1205.12 2178.1ZM539.485 2054.66 563.68 2054.66 563.922 2178.1 539.726 2178.1ZM2148.44 2052.47C2159.73 2052.47 2169.86 2055.34 2178.81 2061.08 2187.76 2066.82 2194.86 2074.58 2200.1 2084.37 2205.34 2094.15 2207.96 2105.18 2207.96 2117.47L2207.96 2124.26 2110.94 2124.26C2112.07 2130.89 2114.53 2136.87 2118.32 2142.21 2122.11 2147.54 2126.95 2151.75 2132.84 2154.82 2138.72 2157.89 2145.14 2159.43 2152.07 2159.43 2158.2 2159.43 2163.97 2158.5 2169.37 2156.64 2174.78 2154.78 2179.41 2152.15 2183.29 2148.76L2198.77 2164.03C2191.67 2169.53 2184.25 2173.61 2176.51 2176.28 2168.77 2178.95 2160.3 2180.28 2151.1 2180.28 2139.01 2180.28 2128.08 2177.45 2118.32 2171.79 2108.56 2166.14 2100.82 2158.46 2095.09 2148.76 2089.36 2139.05 2086.5 2128.22 2086.5 2116.26 2086.5 2104.45 2089.24 2093.7 2094.73 2084 2100.21 2074.3 2107.63 2066.62 2116.99 2060.96 2126.34 2055.3 2136.83 2052.47 2148.44 2052.47ZM1312.39 2052.47C1318.84 2052.64 1325.21 2053.77 1331.5 2055.87 1337.79 2057.97 1343.52 2061.04 1348.68 2065.09L1348.92 2054.66 1372.64 2054.66 1372.64 2180.04C1372.64 2196.21 1367.8 2208.58 1358.12 2217.15 1348.44 2225.71 1334.49 2230 1316.26 2230 1307.23 2230 1298.47 2228.91 1290.01 2226.73 1281.54 2224.54 1273.75 2221.59 1266.66 2217.87L1276.09 2198.71C1283.19 2202.43 1289.88 2205.18 1296.18 2206.96 1302.47 2208.74 1308.92 2209.63 1315.53 2209.63 1326.34 2209.63 1334.53 2207.12 1340.09 2202.11 1345.66 2197.1 1348.44 2189.74 1348.44 2180.04L1348.44 2165.97C1337.63 2174.54 1325.37 2178.83 1311.66 2178.83 1300.21 2178.83 1289.8 2176.08 1280.45 2170.58 1271.09 2165.08 1263.63 2157.49 1258.07 2147.78 1252.5 2138.08 1249.72 2127.41 1249.72 2115.77 1249.72 2103.97 1252.5 2093.3 1258.07 2083.76 1263.63 2074.22 1271.09 2066.66 1280.45 2061.08 1289.8 2055.51 1300.45 2052.64 1312.39 2052.47ZM3060.07 2052.23C3076.04 2052.23 3088.42 2056.03 3097.21 2063.63 3106 2071.23 3110.4 2082.06 3110.4 2096.13L3110.4 2178.1 3086.69 2178.1 3086.69 2167.43C3081.2 2171.79 3075.31 2175.03 3069.02 2177.13 3062.73 2179.23 3055.88 2180.28 3048.46 2180.28 3039.58 2180.28 3031.76 2178.71 3024.99 2175.55 3018.21 2172.4 3012.89 2167.99 3009.02 2162.34 3005.14 2156.68 3003.21 2150.13 3003.21 2142.69 3003.21 2131.05 3007.65 2121.88 3016.52 2115.17 3025.39 2108.46 3037.57 2105.1 3053.05 2105.1 3065.15 2105.1 3076.36 2107.45 3086.69 2112.13L3086.69 2099.04C3086.69 2090.31 3084.15 2083.72 3079.06 2079.27 3073.98 2074.83 3066.52 2072.6 3056.68 2072.6 3051.04 2072.6 3045.15 2073.45 3039.02 2075.15 3032.89 2076.85 3026.03 2079.56 3018.45 2083.27L3009.5 2064.84C3018.86 2060.48 3027.57 2057.28 3035.63 2055.26 3043.7 2053.24 3051.84 2052.23 3060.07 2052.23ZM2939.9 2052.23C2949.25 2052.23 2957.56 2054.25 2964.82 2058.29 2972.08 2062.34 2977.72 2068 2981.76 2075.27 2985.79 2082.55 2987.8 2090.95 2987.8 2100.49L2987.8 2178.1 2963.61 2178.1 2963.61 2104.62C2963.61 2094.92 2960.87 2087.28 2955.38 2081.7 2949.9 2076.12 2942.48 2073.33 2933.12 2073.33 2926.51 2073.33 2920.66 2074.7 2915.58 2077.45 2910.5 2080.2 2906.26 2084.16 2902.88 2089.34L2902.88 2178.1 2878.44 2178.1 2878.44 2054.66 2902.88 2054.66 2902.88 2067.27C2912.39 2057.24 2924.73 2052.23 2939.9 2052.23ZM2785.77 2052.23C2797.7 2052.39 2808.51 2055.3 2818.19 2060.96 2827.87 2066.62 2835.57 2074.3 2841.3 2084 2847.02 2093.7 2849.89 2104.54 2849.89 2116.5 2849.89 2128.46 2847.02 2139.3 2841.3 2149 2835.57 2158.7 2827.87 2166.38 2818.19 2172.04 2808.51 2177.7 2797.7 2180.52 2785.77 2180.52 2773.83 2180.52 2763.02 2177.7 2753.34 2172.04 2743.67 2166.38 2735.96 2158.7 2730.24 2149 2724.51 2139.3 2721.65 2128.46 2721.65 2116.5 2721.65 2104.54 2724.51 2093.7 2730.24 2084 2735.96 2074.3 2743.67 2066.58 2753.34 2060.84 2763.02 2055.1 2773.83 2052.23 2785.77 2052.23ZM2505.58 2052.23C2521.55 2052.23 2533.93 2056.03 2542.72 2063.63 2551.51 2071.23 2555.9 2082.06 2555.9 2096.13L2555.9 2178.1 2532.19 2178.1 2532.19 2167.43C2526.71 2171.79 2520.82 2175.03 2514.53 2177.13 2508.24 2179.23 2501.38 2180.28 2493.96 2180.28 2485.09 2180.28 2477.27 2178.71 2470.49 2175.55 2463.72 2172.4 2458.39 2167.99 2454.52 2162.34 2450.65 2156.68 2448.72 2150.13 2448.72 2142.69 2448.72 2131.05 2453.15 2121.88 2462.02 2115.17 2470.9 2108.46 2483.07 2105.1 2498.56 2105.1 2510.66 2105.1 2521.87 2107.45 2532.19 2112.13L2532.19 2099.04C2532.19 2090.31 2529.65 2083.72 2524.57 2079.27 2519.49 2074.83 2512.03 2072.6 2502.19 2072.6 2496.54 2072.6 2490.66 2073.45 2484.53 2075.15 2478.4 2076.85 2471.54 2079.56 2463.96 2083.27L2455.01 2064.84C2464.36 2060.48 2473.07 2057.28 2481.14 2055.26 2489.2 2053.24 2497.35 2052.23 2505.58 2052.23ZM2385.4 2052.23C2394.76 2052.23 2403.07 2054.25 2410.32 2058.29 2417.58 2062.34 2423.23 2068 2427.26 2075.27 2431.29 2082.55 2433.31 2090.95 2433.31 2100.49L2433.31 2178.1 2409.11 2178.1 2409.11 2104.62C2409.11 2094.92 2406.37 2087.28 2400.89 2081.7 2395.4 2076.12 2387.98 2073.33 2378.63 2073.33 2372.01 2073.33 2366.17 2074.7 2361.09 2077.45 2356 2080.2 2351.77 2084.16 2348.38 2089.34L2348.38 2178.1 2323.95 2178.1 2323.95 2054.66 2348.38 2054.66 2348.38 2067.27C2357.9 2057.24 2370.24 2052.23 2385.4 2052.23ZM1921.64 2052.23C1931 2052.23 1939.31 2054.25 1946.57 2058.29 1953.83 2062.34 1959.47 2068 1963.5 2075.27 1967.54 2082.55 1969.55 2090.95 1969.55 2100.49L1969.55 2178.1 1945.36 2178.1 1945.36 2104.62C1945.36 2094.92 1942.61 2087.28 1937.13 2081.7 1931.65 2076.12 1924.23 2073.33 1914.87 2073.33 1908.26 2073.33 1902.41 2074.7 1897.33 2077.45 1892.25 2080.2 1888.01 2084.16 1884.62 2089.34L1884.62 2178.1 1860.19 2178.1 1860.19 2054.66 1884.62 2054.66 1884.62 2067.27C1894.14 2057.24 1906.48 2052.23 1921.64 2052.23ZM1668.96 2052.23C1677.99 2052.23 1686.58 2053.53 1694.73 2056.11 1702.87 2058.7 1710.74 2062.74 1718.32 2068.24L1706.22 2084.24C1699.28 2079.72 1692.67 2076.4 1686.38 2074.3 1680.09 2072.2 1673.64 2071.15 1667.02 2071.15 1659.76 2071.15 1653.83 2072.73 1649.24 2075.88 1644.64 2079.03 1642.34 2083.11 1642.34 2088.13 1642.34 2092.65 1643.95 2096.13 1647.18 2098.55 1650.41 2100.98 1655.57 2102.76 1662.67 2103.89L1684.93 2107.04C1697.19 2108.66 1706.46 2112.38 1712.75 2118.2 1719.04 2124.02 1722.19 2131.78 1722.19 2141.48 1722.19 2148.92 1719.93 2155.59 1715.41 2161.49 1710.9 2167.39 1704.77 2172.04 1697.02 2175.43 1689.28 2178.83 1680.49 2180.52 1670.65 2180.52 1660 2180.52 1650.04 2178.95 1640.77 2175.8 1631.49 2172.64 1623.47 2168.16 1616.69 2162.34L1630 2146.09C1636.29 2151.26 1642.83 2155.14 1649.6 2157.73 1656.37 2160.31 1663.15 2161.61 1669.93 2161.61 1678.64 2161.61 1685.73 2159.91 1691.22 2156.52 1696.7 2153.12 1699.44 2148.76 1699.44 2143.42 1699.44 2138.89 1697.83 2135.38 1694.6 2132.87 1691.38 2130.36 1686.38 2128.63 1679.6 2127.66L1657.34 2124.26C1645.08 2122.48 1635.89 2118.68 1629.76 2112.86 1623.63 2107.04 1620.56 2099.28 1620.56 2089.58 1620.56 2082.14 1622.58 2075.64 1626.61 2070.06 1630.65 2064.48 1636.29 2060.11 1643.55 2056.96 1650.81 2053.81 1659.28 2052.23 1668.96 2052.23ZM862.26 2052.23C878.229 2052.23 890.609 2056.03 899.401 2063.63 908.192 2071.23 912.588 2082.06 912.588 2096.13L912.588 2178.1 888.876 2178.1 888.876 2167.43C883.391 2171.79 877.504 2175.03 871.212 2177.13 864.921 2179.23 858.065 2180.28 850.646 2180.28 841.774 2180.28 833.951 2178.71 827.176 2175.55 820.401 2172.4 815.078 2167.99 811.206 2162.34 807.335 2156.68 805.399 2150.13 805.399 2142.69 805.399 2131.05 809.835 2121.88 818.707 2115.17 827.579 2108.46 839.758 2105.1 855.244 2105.1 867.342 2105.1 878.552 2107.45 888.876 2112.13L888.876 2099.04C888.876 2090.31 886.335 2083.72 881.254 2079.27 876.172 2074.83 868.712 2072.6 858.872 2072.6 853.226 2072.6 847.339 2073.45 841.21 2075.15 835.079 2076.85 828.224 2079.56 820.643 2083.27L811.69 2064.84C821.046 2060.48 829.756 2057.28 837.822 2055.26 845.887 2053.24 854.034 2052.23 862.26 2052.23ZM658.771 2052.23C667.159 2052.23 674.66 2054.05 681.273 2057.69 687.886 2061.33 693.129 2066.38 697.001 2072.85 702.001 2065.89 708.01 2060.72 715.027 2057.32 722.044 2053.93 729.908 2052.23 738.618 2052.23 747.651 2052.23 755.595 2054.25 762.451 2058.29 769.306 2062.34 774.711 2068 778.663 2075.27 782.614 2082.55 784.59 2090.95 784.59 2100.49L784.59 2178.1 760.394 2178.1 760.394 2104.62C760.394 2094.92 757.854 2087.28 752.772 2081.7 747.692 2076.12 740.876 2073.33 732.327 2073.33 726.359 2073.33 720.914 2074.75 715.995 2077.58 711.075 2080.41 706.84 2084.57 703.292 2090.06 703.614 2091.68 703.856 2093.34 704.017 2095.04 704.179 2096.73 704.26 2098.55 704.26 2100.49L704.26 2178.1 680.306 2178.1 680.306 2104.62C680.306 2094.92 677.765 2087.28 672.684 2081.7 667.602 2076.12 660.787 2073.33 652.238 2073.33 646.431 2073.33 641.149 2074.58 636.39 2077.09 631.631 2079.6 627.639 2083.36 624.412 2088.37L624.412 2178.1 599.974 2178.1 599.974 2054.66 624.412 2054.66 624.412 2066.3C633.446 2056.92 644.899 2052.23 658.771 2052.23ZM469.88 2052.23C479.236 2052.23 487.544 2054.25 494.803 2058.29 502.061 2062.34 507.707 2068 511.74 2075.27 515.773 2082.55 517.789 2090.95 517.789 2100.49L517.789 2178.1 493.593 2178.1 493.593 2104.62C493.593 2094.92 490.85 2087.28 485.366 2081.7 479.882 2076.12 472.461 2073.33 463.105 2073.33 456.492 2073.33 450.644 2074.7 445.564 2077.45 440.482 2080.2 436.248 2084.16 432.86 2089.34L432.86 2178.1 408.423 2178.1 408.423 2054.66 432.86 2054.66 432.86 2067.27C442.378 2057.24 454.717 2052.23 469.88 2052.23ZM2291.28 2051.75C2296.28 2051.91 2300.39 2052.64 2303.62 2053.93L2303.62 2075.76C2301.52 2074.79 2299.22 2074.1 2296.72 2073.69 2294.22 2073.29 2291.76 2073.09 2289.34 2073.09 2282.25 2073.09 2276 2075.03 2270.59 2078.91 2265.19 2082.79 2260.87 2088.29 2257.65 2095.4L2257.65 2178.1 2233.21 2178.1 2233.21 2054.66 2257.65 2054.66 2257.65 2070.42C2261.36 2064.44 2266.08 2059.83 2271.8 2056.6 2277.53 2053.36 2284.02 2051.75 2291.28 2051.75ZM307.203 2032.83 277.683 2107.28 336.722 2107.28ZM1072.12 2030.65 1072.12 2087.15 1121.24 2087.15C1131.24 2087.15 1139.22 2084.61 1145.19 2079.51 1151.16 2074.42 1154.15 2067.59 1154.15 2059.02 1154.15 2050.45 1151.16 2043.58 1145.19 2038.41 1139.22 2033.23 1131.24 2030.65 1121.24 2030.65ZM2626.23 2017.31 2626.23 2054.66 2662.53 2054.66 2662.53 2075.03 2626.23 2075.03 2626.23 2141.96C2626.23 2148.27 2627.61 2152.76 2630.35 2155.42 2633.09 2158.09 2637.77 2159.43 2644.38 2159.43 2647.61 2159.43 2650.55 2159.18 2653.21 2158.7 2655.87 2158.21 2658.82 2157.4 2662.04 2156.27L2662.04 2176.89C2658.82 2178.02 2655.03 2178.87 2650.67 2179.43 2646.32 2180 2642.36 2180.28 2638.82 2180.28 2626.88 2180.28 2617.77 2177.49 2611.47 2171.92 2605.18 2166.34 2602.04 2158.21 2602.04 2147.54L2602.04 2075.03 2575.91 2075.03 2575.91 2054.66 2602.04 2054.66 2602.04 2023.13ZM2041.5 2017.31 2041.5 2054.66 2077.79 2054.66 2077.79 2075.03 2041.5 2075.03 2041.5 2141.96C2041.5 2148.27 2042.87 2152.76 2045.61 2155.42 2048.35 2158.09 2053.03 2159.43 2059.64 2159.43 2062.87 2159.43 2065.81 2159.18 2068.47 2158.7 2071.14 2158.21 2074.08 2157.4 2077.31 2156.27L2077.31 2176.89C2074.08 2178.02 2070.29 2178.87 2065.93 2179.43 2061.58 2180 2057.63 2180.28 2054.08 2180.28 2042.14 2180.28 2033.03 2177.49 2026.74 2171.92 2020.45 2166.34 2017.3 2158.21 2017.3 2147.54L2017.3 2075.03 1991.17 2075.03 1991.17 2054.66 2017.3 2054.66 2017.3 2023.13ZM1577.74 2017.31 1577.74 2054.66 1614.03 2054.66 1614.03 2075.03 1577.74 2075.03 1577.74 2141.96C1577.74 2148.27 1579.11 2152.76 1581.85 2155.42 1584.59 2158.09 1589.27 2159.43 1595.88 2159.43 1599.11 2159.43 1602.05 2159.18 1604.72 2158.7 1607.38 2158.21 1610.32 2157.4 1613.55 2156.27L1613.55 2176.89C1610.32 2178.02 1606.53 2178.87 1602.18 2179.43 1597.82 2180 1593.87 2180.28 1590.32 2180.28 1578.38 2180.28 1569.27 2177.49 1562.98 2171.92 1556.69 2166.34 1553.54 2158.21 1553.54 2147.54L1553.54 2075.03 1527.41 2075.03 1527.41 2054.66 1553.54 2054.66 1553.54 2023.13ZM1802.6 2008.34 1828.25 2008.34 1828.25 2178.1 1802.6 2178.1ZM1046.47 2008.34 1123.42 2008.34C1134.71 2008.34 1144.59 2010.44 1153.06 2014.64 1161.53 2018.84 1168.1 2024.71 1172.78 2032.22 1177.45 2039.74 1179.79 2048.59 1179.79 2058.78 1179.79 2069.77 1176.65 2079.31 1170.36 2087.4 1164.07 2095.48 1155.68 2101.3 1145.19 2104.86L1182.94 2178.1 1154.39 2178.1 1119.54 2108.5 1072.12 2108.5 1072.12 2178.1 1046.47 2178.1ZM292.926 2008.34 322.929 2008.34 392.373 2178.1 364.547 2178.1 344.948 2128.38 269.214 2128.38 249.373 2178.1 223 2178.1ZM2688.9 2004.7C2693.1 2004.86 2696.65 2006.39 2699.55 2009.31 2702.45 2012.22 2703.9 2015.69 2703.9 2019.73 2703.9 2023.78 2702.45 2027.25 2699.55 2030.16 2696.65 2033.07 2693.1 2034.61 2688.9 2034.77 2684.87 2034.77 2681.4 2033.27 2678.5 2030.28 2675.59 2027.29 2674.14 2023.78 2674.14 2019.73 2674.14 2015.69 2675.59 2012.18 2678.5 2009.18 2681.4 2006.19 2684.87 2004.7 2688.9 2004.7ZM1216.97 2004.7C1221.17 2004.86 1224.72 2006.39 1227.62 2009.31 1230.52 2012.22 1231.98 2015.69 1231.98 2019.73 1231.98 2023.78 1230.52 2027.25 1227.62 2030.16 1224.72 2033.07 1221.17 2034.61 1216.97 2034.77 1212.94 2034.77 1209.47 2033.27 1206.57 2030.28 1203.67 2027.29 1202.21 2023.78 1202.21 2019.73 1202.21 2015.69 1203.67 2012.18 1206.57 2009.18 1209.47 2006.19 1212.94 2004.7 1216.97 2004.7ZM551.582 2004.7C555.776 2004.86 559.325 2006.39 562.229 2009.31 565.132 2012.22 566.584 2015.69 566.584 2019.73 566.584 2023.78 565.132 2027.25 562.229 2030.16 559.325 2033.07 555.776 2034.61 551.582 2034.77 547.549 2034.77 544.082 2033.27 541.178 2030.28 538.274 2027.29 536.823 2023.78 536.823 2019.73 536.823 2015.69 538.274 2012.18 541.178 2009.18 544.082 2006.19 547.549 2004.7 551.582 2004.7ZM3165 2003.73 3165 2178.1 3140.56 2178.1 3140.56 2008.34ZM967.19 2003.73 967.19 2178.1 942.753 2178.1 942.753 2008.34ZM1420.87 2003 1420.87 2067.27C1430.38 2057.24 1442.72 2052.23 1457.89 2052.23 1467.24 2052.23 1475.55 2054.25 1482.81 2058.29 1490.07 2062.34 1495.71 2068 1499.75 2075.27 1503.78 2082.55 1505.8 2090.95 1505.8 2100.49L1505.8 2178.1 1481.6 2178.1 1481.6 2104.62C1481.6 2094.92 1478.86 2087.28 1473.37 2081.7 1467.89 2076.12 1460.47 2073.33 1451.11 2073.33 1444.5 2073.33 1438.65 2074.7 1433.57 2077.45 1428.49 2080.2 1424.25 2084.16 1420.87 2089.34L1420.87 2178.1 1396.43 2178.1 1396.43 2008.34Z" fill="url(#fill0)" fill-rule="evenodd"/></g></svg>