<svg width="96" height="96" xmlns="http://www.w3.org/2000/svg" xmlns:xlink="http://www.w3.org/1999/xlink" xml:space="preserve" overflow="hidden"><g transform="translate(-592 -312)"><path d="M665.425 334.777C664.948 333.925 664.137 333.312 663.188 333.085 663.172 333.081 663.157 333.079 663.142 333.077 659.867 332.533 657.172 330.202 656.162 327.04 655.16 324.111 655.16 318.495 655.16 318.438 655.161 317.894 654.727 317.449 654.184 317.436 652.427 317.458 650.708 317.944 649.2 318.844 648.974 317.691 649.01 316.503 649.304 315.366 649.481 314.843 649.201 314.275 648.678 314.098 648.594 314.07 648.508 314.053 648.42 314.047 648.005 314.021 638.219 313.448 632.817 316.915 626.945 320.683 624.187 326.834 624.841 334.702 625.211 338.04 625.921 341.332 626.959 344.526 627.975 347.542 628.618 350.671 628.875 353.842 626.554 352.022 624.719 350.589 623.134 350.523 619.645 350.394 616.677 356.014 616.327 363.635 616.089 368.828 617.137 373.118 619.131 375.11 619.859 375.894 620.888 376.326 621.957 376.297 624.053 376.198 626.111 374.585 628.086 372.567L628.048 372.689C625.476 380.779 624.185 384.84 624.416 389.732 624.88 399.574 631.568 406 641.184 406 641.525 406 641.87 405.991 642.219 405.975 649.251 405.646 654.38 401.228 654.694 395.232 654.91 392.731 653.92 390.276 652.028 388.626 650.495 387.277 648.424 386.716 646.419 387.107 643.728 387.631 641.841 390.068 642.009 392.805 642.097 394.828 643.323 396.627 645.175 397.447 645.866 397.724 646.656 397.473 647.062 396.849 647.324 396.333 647.152 395.702 646.664 395.39 646.171 395.062 645.898 394.49 645.953 393.901 646 393.478 646.215 393.091 646.55 392.83 646.919 392.521 647.397 392.374 647.875 392.42 649.007 392.548 649.821 393.57 649.693 394.701 649.689 394.737 649.684 394.773 649.678 394.809 649.552 395.932 649.002 396.966 648.14 397.697 647.009 398.707 645.502 399.19 643.995 399.026 639.841 398.691 636.606 395.28 636.491 391.114 636.33 387.694 637.666 384.877 640.696 382.25 651.586 372.804 656.369 366.998 655.924 357.562 655.405 346.578 650.119 338.509 641.396 335.35 641.635 335.355 641.875 335.351 642.116 335.341 643.131 335.322 644.128 335.071 645.031 334.607 646.412 333.931 648.044 334.018 649.346 334.837 651.541 336.156 653.631 337.643 655.597 339.285 657.03 340.494 659.443 341.589 660.996 341.328 662.458 341.084 665.479 338.424 665.894 337.016 666.036 336.237 665.868 335.433 665.425 334.777Z" fill="#0BE183"/></g></svg>