<svg width="1582" height="158" xmlns="http://www.w3.org/2000/svg" xmlns:xlink="http://www.w3.org/1999/xlink" xml:space="preserve" overflow="hidden"><defs><clipPath id="clip0"><rect x="1409" y="1900" width="1582" height="158"/></clipPath><linearGradient x1="1409" y1="1979" x2="2991" y2="1979" gradientUnits="userSpaceOnUse" spreadMethod="reflect" id="fill1"><stop offset="0" stop-color="#0BE183"/><stop offset="0.0123457" stop-color="#0BE084"/><stop offset="0.0246914" stop-color="#0BE086"/><stop offset="0.037037" stop-color="#0BE088"/><stop offset="0.0493827" stop-color="#0BE08A"/><stop offset="0.0617284" stop-color="#0BE08C"/><stop offset="0.0740741" stop-color="#0BE08E"/><stop offset="0.0864198" stop-color="#0BE08F"/><stop offset="0.0987654" stop-color="#0BE091"/><stop offset="0.111111" stop-color="#0BDF93"/><stop offset="0.123457" stop-color="#0BDF94"/><stop offset="0.135802" stop-color="#0BDF96"/><stop offset="0.148148" stop-color="#0CDF98"/><stop offset="0.160494" stop-color="#0CDE99"/><stop offset="0.17284" stop-color="#0CDE9B"/><stop offset="0.185185" stop-color="#0CDE9D"/><stop offset="0.197531" stop-color="#0CDD9E"/><stop offset="0.209877" stop-color="#0CDDA0"/><stop offset="0.222222" stop-color="#0CDDA1"/><stop offset="0.234568" stop-color="#0CDCA3"/><stop offset="0.246914" stop-color="#0CDCA4"/><stop offset="0.259259" stop-color="#0CDBA6"/><stop offset="0.271605" stop-color="#0CDBA7"/><stop offset="0.283951" stop-color="#0CDAA9"/><stop offset="0.296296" stop-color="#0CDAAA"/><stop offset="0.308642" stop-color="#0CD9AB"/><stop offset="0.320988" stop-color="#0DD9AD"/><stop offset="0.333333" stop-color="#0DD8AE"/><stop offset="0.345679" stop-color="#0DD7AF"/><stop offset="0.358025" stop-color="#0DD7B1"/><stop offset="0.37037" stop-color="#0DD6B2"/><stop offset="0.382716" stop-color="#0DD5B3"/><stop offset="0.395062" stop-color="#0DD5B5"/><stop offset="0.407407" stop-color="#0DD4B6"/><stop offset="0.419753" stop-color="#0DD3B7"/><stop offset="0.432099" stop-color="#0DD3B8"/><stop offset="0.444444" stop-color="#0DD2B9"/><stop offset="0.45679" stop-color="#0DD1BA"/><stop offset="0.469136" stop-color="#0DD0BB"/><stop offset="0.481481" stop-color="#0DCFBD"/><stop offset="0.493827" stop-color="#0DCFBE"/><stop offset="0.506173" stop-color="#0DCEBF"/><stop offset="0.518519" stop-color="#0DCDC0"/><stop offset="0.530864" stop-color="#0ECCC1"/><stop offset="0.54321" stop-color="#0ECBC2"/><stop offset="0.555556" stop-color="#0ECAC3"/><stop offset="0.567901" stop-color="#0EC9C3"/><stop offset="0.580247" stop-color="#0EC8C4"/><stop offset="0.592593" stop-color="#0EC7C5"/><stop offset="0.604938" stop-color="#0EC6C6"/><stop offset="0.617284" stop-color="#0EC5C7"/><stop offset="0.62963" stop-color="#0EC4C8"/><stop offset="0.641975" stop-color="#0EC3C9"/><stop offset="0.654321" stop-color="#0EC2C9"/><stop offset="0.666667" stop-color="#0EC1CA"/><stop offset="0.679012" stop-color="#0EC0CB"/><stop offset="0.691358" stop-color="#0EBFCB"/><stop offset="0.703704" stop-color="#0EBECC"/><stop offset="0.716049" stop-color="#0EBDCD"/><stop offset="0.728395" stop-color="#0EBCCD"/><stop offset="0.740741" stop-color="#0EBACE"/><stop offset="0.753086" stop-color="#0EB9CF"/><stop offset="0.765432" stop-color="#0EB8CF"/><stop offset="0.777778" stop-color="#0EB7D0"/><stop offset="0.790123" stop-color="#0EB5D0"/><stop offset="0.802469" stop-color="#0EB4D1"/><stop offset="0.814815" stop-color="#0EB3D1"/><stop offset="0.82716" stop-color="#0EB2D1"/><stop offset="0.839506" stop-color="#0EB0D2"/><stop offset="0.851852" stop-color="#0EAFD2"/><stop offset="0.864198" stop-color="#0EAED3"/><stop offset="0.876543" stop-color="#0EACD3"/><stop offset="0.888889" stop-color="#0EABD3"/><stop offset="0.901235" stop-color="#0EA9D3"/><stop offset="0.91358" stop-color="#0EA8D4"/><stop offset="0.925926" stop-color="#0EA7D4"/><stop offset="0.938272" stop-color="#0EA5D4"/><stop offset="0.950617" stop-color="#0EA4D4"/><stop offset="0.962963" stop-color="#0EA2D4"/><stop offset="0.975309" stop-color="#0EA1D4"/><stop offset="0.987654" stop-color="#0E9FD4"/><stop offset="1" stop-color="#0F9ED5"/></linearGradient></defs><g clip-path="url(#clip0)" transform="translate(-1409 -1900)"><path d="M1851.91 1982.71C1845.83 1982.71 1840.99 1984.01 1837.38 1986.6 1833.78 1989.18 1831.97 1992.62 1831.97 1996.89 1831.97 2001.06 1833.75 2004.41 1837.3 2006.94 1840.84 2009.47 1845.49 2010.73 1851.24 2010.73 1855.74 2010.73 1859.88 2010.09 1863.66 2008.79 1867.43 2007.5 1870.9 2005.45 1874.05 2002.63L1874.05 1988.12C1870.78 1986.2 1867.38 1984.82 1863.83 1983.98 1860.28 1983.14 1856.31 1982.71 1851.91 1982.71ZM2171.35 1949.29C2165.95 1949.18 2161.07 1950.42 2156.74 1953 2152.4 1955.59 2148.96 1959.08 2146.43 1963.47 2143.89 1967.86 2142.68 1972.81 2142.8 1978.32 2142.68 1983.95 2143.92 1988.99 2146.51 1993.43 2149.1 1997.88 2152.54 2001.42 2156.82 2004.07 2161.1 2006.71 2165.95 2007.98 2171.35 2007.87 2176.2 2007.98 2180.68 2007.13 2184.79 2005.33 2188.9 2003.53 2192.31 2001 2195.01 1997.74L2195.01 1959.25C2192.31 1956.1 2188.87 1953.62 2184.7 1951.82 2180.54 1950.02 2176.09 1949.18 2171.35 1949.29ZM2945.37 1949.12C2940.52 1949.23 2936.02 1950.19 2931.85 1951.99 2927.68 1953.79 2924.25 1956.32 2921.54 1959.59L2921.54 1998.24C2924.25 2001.51 2927.68 2004.07 2931.85 2005.92 2936.02 2007.78 2940.52 2008.65 2945.37 2008.54 2950.89 2008.54 2955.82 2007.25 2960.16 2004.66 2964.49 2002.07 2967.96 1998.55 2970.55 1994.11 2973.14 1989.66 2974.43 1984.63 2974.43 1979 2974.43 1973.37 2973.17 1968.31 2970.63 1963.81 2968.1 1959.31 2964.63 1955.76 2960.24 1953.17 2955.85 1950.58 2950.89 1949.23 2945.37 1949.12ZM2748.22 1949.12C2743.04 1949.23 2738.3 1950.61 2734.02 1953.26 2729.74 1955.9 2726.33 1959.42 2723.8 1963.81 2721.26 1968.2 2720 1973.26 2720 1979 2720 1984.51 2721.26 1989.52 2723.8 1994.02 2726.33 1998.53 2729.71 2002.1 2733.94 2004.74 2738.16 2007.39 2742.92 2008.71 2748.22 2008.71 2753.51 2008.71 2758.3 2007.39 2762.58 2004.74 2766.86 2002.1 2770.24 1998.53 2772.72 1994.02 2775.2 1989.52 2776.44 1984.51 2776.44 1979 2776.44 1973.37 2775.17 1968.34 2772.64 1963.89 2770.1 1959.45 2766.69 1955.87 2762.41 1953.17 2758.13 1950.47 2753.4 1949.12 2748.22 1949.12ZM2805.39 1935.96 2822.29 1935.96 2822.29 1986.93C2822.29 1993.69 2824.23 1999.03 2828.12 2002.97 2832.01 2006.91 2837.22 2008.88 2843.75 2008.88 2848.37 2008.88 2852.48 2007.87 2856.09 2005.84 2859.69 2003.81 2862.62 2001.06 2864.88 1997.57L2864.88 1935.96 2881.94 1935.96 2881.94 2021.88 2864.88 2021.88 2864.88 2013.27C2858.23 2020.13 2849.67 2023.56 2839.19 2023.56 2832.54 2023.56 2826.68 2022.13 2821.61 2019.26 2816.54 2016.39 2812.57 2012.42 2809.7 2007.36 2806.83 2002.29 2805.39 1996.44 2805.39 1989.8ZM2094.75 1935.96 2111.65 1935.96 2111.81 2021.88 2094.92 2021.88ZM1630.03 1935.96 1646.93 1935.96 1647.1 2021.88 1630.2 2021.88ZM2947.57 1934.6C2955.68 1934.6 2963.03 1936.6 2969.62 1940.6 2976.21 1944.59 2981.45 1949.88 2985.33 1956.47 2989.22 1963.05 2991.11 1970.56 2991 1979 2991.11 1987.22 2989.19 1994.67 2985.25 2001.37 2981.31 2008.06 2976.07 2013.38 2969.53 2017.32 2963 2021.26 2955.56 2023.23 2947.23 2023.23 2942.5 2023.23 2937.93 2022.47 2933.54 2020.95 2929.15 2019.43 2925.15 2017.32 2921.54 2014.62L2921.37 2056.31 2904.47 2056.31 2904.64 1935.96 2921.2 1935.96 2921.2 1944.23C2928.53 1937.81 2937.31 1934.6 2947.57 1934.6ZM2169.83 1934.44C2174.34 1934.55 2178.79 1935.34 2183.18 1936.8 2187.58 1938.26 2191.58 1940.4 2195.18 1943.21L2195.35 1935.96 2211.91 1935.96 2211.91 2023.23C2211.91 2034.48 2208.53 2043.09 2201.77 2049.05 2195.01 2055.02 2185.27 2058 2172.54 2058 2166.23 2058 2160.12 2057.24 2154.2 2055.72 2148.29 2054.2 2142.85 2052.15 2137.9 2049.56L2144.49 2036.22C2149.44 2038.81 2154.12 2040.73 2158.51 2041.96 2162.9 2043.2 2167.41 2043.82 2172.03 2043.82 2179.58 2043.82 2185.3 2042.08 2189.18 2038.59 2193.07 2035.1 2195.01 2029.98 2195.01 2023.23L2195.01 2013.44C2187.46 2019.4 2178.9 2022.38 2169.33 2022.38 2161.33 2022.38 2154.06 2020.47 2147.53 2016.64 2140.99 2012.82 2135.78 2007.53 2131.9 2000.78 2128.01 1994.02 2126.07 1986.6 2126.07 1978.49 2126.07 1970.28 2128.01 1962.85 2131.9 1956.21 2135.78 1949.57 2140.99 1944.31 2147.53 1940.43 2154.06 1936.55 2161.5 1934.55 2169.83 1934.44ZM2748.22 1934.27C2756.55 1934.38 2764.1 1936.41 2770.86 1940.34 2777.62 1944.28 2783 1949.63 2787 1956.38 2791 1963.13 2793 1970.67 2793 1979 2793 1987.33 2791 1994.87 2787 2001.62 2783 2008.37 2777.62 2013.72 2770.86 2017.66 2764.1 2021.59 2756.55 2023.56 2748.22 2023.56 2739.88 2023.56 2732.33 2021.59 2725.57 2017.66 2718.81 2013.72 2713.43 2008.37 2709.44 2001.62 2705.44 1994.87 2703.44 1987.33 2703.44 1979 2703.44 1970.67 2705.44 1963.13 2709.44 1956.38 2713.43 1949.63 2718.81 1944.25 2725.57 1940.26 2732.33 1936.26 2739.88 1934.27 2748.22 1934.27ZM2418.86 1934.27C2425.17 1934.27 2431.17 1935.17 2436.86 1936.97 2442.55 1938.77 2448.04 1941.58 2453.34 1945.41L2444.89 1956.55C2440.04 1953.4 2435.42 1951.09 2431.03 1949.63 2426.64 1948.17 2422.13 1947.43 2417.51 1947.43 2412.44 1947.43 2408.3 1948.53 2405.09 1950.73 2401.88 1952.92 2400.27 1955.76 2400.27 1959.25 2400.27 1962.4 2401.4 1964.82 2403.65 1966.51 2405.91 1968.2 2409.51 1969.43 2414.47 1970.22L2430.02 1972.42C2438.58 1973.54 2445.06 1976.13 2449.45 1980.18 2453.84 1984.23 2456.04 1989.63 2456.04 1996.39 2456.04 2001.56 2454.46 2006.21 2451.31 2010.31 2448.15 2014.42 2443.87 2017.66 2438.47 2020.02 2433.06 2022.38 2426.92 2023.56 2420.05 2023.56 2412.61 2023.56 2405.65 2022.47 2399.18 2020.27 2392.7 2018.08 2387.09 2014.95 2382.36 2010.9L2391.66 1999.59C2396.05 2003.2 2400.61 2005.9 2405.34 2007.7 2410.08 2009.5 2414.81 2010.4 2419.54 2010.4 2425.62 2010.4 2430.58 2009.22 2434.41 2006.85 2438.24 2004.49 2440.16 2001.45 2440.16 1997.74 2440.16 1994.59 2439.03 1992.14 2436.78 1990.39 2434.52 1988.65 2431.03 1987.44 2426.3 1986.76L2410.75 1984.4C2402.19 1983.16 2395.77 1980.52 2391.49 1976.47 2387.21 1972.42 2385.07 1967.01 2385.07 1960.26 2385.07 1955.09 2386.47 1950.56 2389.29 1946.67 2392.11 1942.79 2396.05 1939.75 2401.12 1937.56 2406.19 1935.36 2412.1 1934.27 2418.86 1934.27ZM1855.46 1934.27C1866.61 1934.27 1875.26 1936.91 1881.4 1942.2 1887.54 1947.49 1890.61 1955.03 1890.61 1964.82L1890.61 2021.88 1874.05 2021.88 1874.05 2014.45C1870.22 2017.49 1866.11 2019.74 1861.71 2021.2 1857.32 2022.66 1852.53 2023.4 1847.35 2023.4 1841.15 2023.4 1835.69 2022.3 1830.96 2020.1 1826.23 2017.91 1822.51 2014.84 1819.81 2010.9 1817.1 2006.97 1815.75 2002.41 1815.75 1997.23 1815.75 1989.13 1818.85 1982.74 1825.04 1978.07 1831.24 1973.4 1839.75 1971.07 1850.56 1971.07 1859.01 1971.07 1866.84 1972.7 1874.05 1975.96L1874.05 1966.85C1874.05 1960.77 1872.28 1956.18 1868.73 1953.09 1865.18 1949.99 1859.97 1948.45 1853.1 1948.45 1849.15 1948.45 1845.04 1949.04 1840.76 1950.22 1836.48 1951.4 1831.69 1953.29 1826.4 1955.87L1820.14 1943.04C1826.68 1940.01 1832.76 1937.78 1838.39 1936.38 1844.03 1934.97 1849.72 1934.27 1855.46 1934.27ZM1713.34 1934.27C1719.2 1934.27 1724.44 1935.53 1729.06 1938.06 1733.68 1940.6 1737.34 1944.11 1740.04 1948.62 1743.54 1943.78 1747.73 1940.18 1752.63 1937.81 1757.53 1935.45 1763.03 1934.27 1769.11 1934.27 1775.42 1934.27 1780.97 1935.67 1785.75 1938.49 1790.54 1941.3 1794.32 1945.24 1797.08 1950.3 1799.84 1955.37 1801.22 1961.22 1801.22 1967.86L1801.22 2021.88 1784.32 2021.88 1784.32 1970.73C1784.32 1963.98 1782.54 1958.66 1779 1954.78 1775.45 1950.89 1770.69 1948.95 1764.72 1948.95 1760.55 1948.95 1756.75 1949.94 1753.31 1951.91 1749.87 1953.88 1746.92 1956.77 1744.44 1960.6 1744.66 1961.73 1744.83 1962.88 1744.94 1964.06 1745.06 1965.24 1745.11 1966.51 1745.11 1967.86L1745.11 2021.88 1728.38 2021.88 1728.38 1970.73C1728.38 1963.98 1726.61 1958.66 1723.06 1954.78 1719.51 1950.89 1714.75 1948.95 1708.78 1948.95 1704.73 1948.95 1701.04 1949.83 1697.71 1951.57 1694.39 1953.31 1691.6 1955.93 1689.35 1959.42L1689.35 2021.88 1672.28 2021.88 1672.28 1935.96 1689.35 1935.96 1689.35 1944.06C1695.66 1937.53 1703.66 1934.27 1713.34 1934.27ZM1581.42 1934.27C1587.96 1934.27 1593.76 1935.67 1598.83 1938.49 1603.9 1941.3 1607.84 1945.24 1610.66 1950.3 1613.47 1955.37 1614.88 1961.22 1614.88 1967.86L1614.88 2021.88 1597.98 2021.88 1597.98 1970.73C1597.98 1963.98 1596.07 1958.66 1592.24 1954.78 1588.41 1950.89 1583.22 1948.95 1576.69 1948.95 1572.07 1948.95 1567.99 1949.91 1564.44 1951.82 1560.89 1953.74 1557.93 1956.49 1555.57 1960.09L1555.57 2021.88 1538.5 2021.88 1538.5 1935.96 1555.57 1935.96 1555.57 1944.73C1562.21 1937.76 1570.83 1934.27 1581.42 1934.27ZM2684.51 1933.93C2688 1934.04 2690.88 1934.55 2693.13 1935.45L2693.13 1950.64C2691.66 1949.97 2690.06 1949.49 2688.31 1949.21 2686.57 1948.93 2684.85 1948.78 2683.16 1948.78 2678.2 1948.78 2673.84 1950.13 2670.06 1952.84 2666.29 1955.54 2663.27 1959.36 2661.02 1964.31L2661.02 2021.88 2643.95 2021.88 2643.95 1935.96 2661.02 1935.96 2661.02 1946.93C2663.61 1942.76 2666.91 1939.56 2670.91 1937.31 2674.91 1935.05 2679.44 1933.93 2684.51 1933.93ZM1467.81 1920.76 1447.19 1972.59 1488.42 1972.59ZM2002.03 1919.24 2002.03 1958.57 2036.33 1958.57C2043.32 1958.57 2048.9 1956.8 2053.06 1953.26 2057.23 1949.71 2059.32 1944.96 2059.32 1938.99 2059.32 1933.03 2057.23 1928.25 2053.06 1924.64 2048.9 1921.04 2043.32 1919.24 2036.33 1919.24ZM2355.16 1909.96 2355.16 1935.96 2380.5 1935.96 2380.5 1950.13 2355.16 1950.13 2355.16 1996.72C2355.16 2001.11 2356.11 2004.24 2358.03 2006.09 2359.94 2007.95 2363.21 2008.88 2367.83 2008.88 2370.08 2008.88 2372.14 2008.71 2374 2008.37 2375.86 2008.03 2377.91 2007.47 2380.17 2006.68L2380.17 2021.03C2377.91 2021.82 2375.26 2022.41 2372.22 2022.8 2369.18 2023.2 2366.42 2023.4 2363.94 2023.4 2355.61 2023.4 2349.24 2021.45 2344.85 2017.57 2340.45 2013.69 2338.26 2008.03 2338.26 2000.61L2338.26 1950.13 2320.01 1950.13 2320.01 1935.96 2338.26 1935.96 2338.26 1914.01ZM1984.12 1903.71 2037.85 1903.71C2045.74 1903.71 2052.64 1905.18 2058.56 1908.1 2064.47 1911.03 2069.06 1915.11 2072.33 1920.34 2075.59 1925.57 2077.23 1931.74 2077.23 1938.82 2077.23 1946.48 2075.03 1953.12 2070.64 1958.74 2066.24 1964.37 2060.39 1968.42 2053.06 1970.9L2079.43 2021.88 2059.49 2021.88 2035.15 1973.43 2002.03 1973.43 2002.03 2021.88 1984.12 2021.88ZM1457.84 1903.71 1478.79 1903.71 1527.29 2021.88 1507.86 2021.88 1494.17 1987.27 1441.28 1987.27 1427.42 2021.88 1409 2021.88ZM2568.64 1901.86C2577.99 1901.86 2586.86 1903.66 2595.26 1907.26 2603.65 1910.86 2610.66 1915.92 2616.3 1922.45L2604.13 1934.1C2599.73 1929.03 2594.44 1925.12 2588.24 1922.37 2582.05 1919.61 2575.51 1918.23 2568.64 1918.23 2562.45 1918.23 2556.73 1919.36 2551.49 1921.61 2546.25 1923.86 2541.66 1927.01 2537.72 1931.06 2533.77 1935.11 2530.7 1939.81 2528.51 1945.15 2526.31 1950.5 2525.21 1956.38 2525.21 1962.79 2525.21 1969.1 2526.34 1974.98 2528.59 1980.44 2530.85 1985.89 2533.94 1990.62 2537.89 1994.61 2541.83 1998.61 2546.45 2001.73 2551.74 2003.98 2557.04 2006.23 2562.78 2007.36 2568.98 2007.36 2575.96 2007.36 2582.27 2005.92 2587.91 2003.05 2593.54 2000.18 2598.16 1996.19 2601.76 1991.07 2605.37 1985.95 2607.62 1980.18 2608.52 1973.77L2569.15 1973.77 2569.15 1958.24 2627.11 1958.24 2627.11 1964.31C2627.11 1972.75 2625.65 1980.58 2622.72 1987.78 2619.79 1994.98 2615.7 2001.28 2610.47 2006.68 2605.23 2012.09 2599.06 2016.28 2591.96 2019.26 2584.86 2022.24 2577.2 2023.73 2568.98 2023.73 2560.3 2023.73 2552.22 2022.16 2544.73 2019.01 2537.24 2015.86 2530.68 2011.49 2525.04 2005.92 2519.41 2000.35 2515.02 1993.88 2511.86 1986.51 2508.71 1979.14 2507.13 1971.23 2507.13 1962.79 2507.13 1954.35 2508.68 1946.45 2511.78 1939.08 2514.88 1931.71 2519.24 1925.24 2524.87 1919.67 2530.51 1914.09 2537.04 1909.73 2544.48 1906.58 2551.91 1903.43 2559.97 1901.86 2568.64 1901.86ZM2103.2 1901.18C2106.13 1901.29 2108.6 1902.36 2110.63 1904.39 2112.66 1906.41 2113.67 1908.83 2113.67 1911.65 2113.67 1914.46 2112.66 1916.88 2110.63 1918.91 2108.6 1920.93 2106.13 1922 2103.2 1922.11 2100.38 1922.11 2097.96 1921.07 2095.93 1918.99 2093.9 1916.91 2092.89 1914.46 2092.89 1911.65 2092.89 1908.83 2093.9 1906.39 2095.93 1904.3 2097.96 1902.22 2100.38 1901.18 2103.2 1901.18ZM1638.48 1901.18C1641.41 1901.29 1643.89 1902.36 1645.92 1904.39 1647.95 1906.41 1648.96 1908.83 1648.96 1911.65 1648.96 1914.46 1647.95 1916.88 1645.92 1918.91 1643.89 1920.93 1641.41 1922 1638.48 1922.11 1635.67 1922.11 1633.24 1921.07 1631.22 1918.99 1629.19 1916.91 1628.18 1914.46 1628.18 1911.65 1628.18 1908.83 1629.19 1906.39 1631.22 1904.3 1633.24 1902.22 1635.67 1901.18 1638.48 1901.18ZM1928.75 1900.51 1928.75 2021.88 1911.68 2021.88 1911.68 1903.71ZM2245.6 1900 2245.6 1944.73C2252.24 1937.76 2260.86 1934.27 2271.45 1934.27 2277.98 1934.27 2283.79 1935.67 2288.86 1938.49 2293.93 1941.3 2297.87 1945.24 2300.69 1950.3 2303.5 1955.37 2304.91 1961.22 2304.91 1967.86L2304.91 2021.88 2288.01 2021.88 2288.01 1970.73C2288.01 1963.98 2286.1 1958.66 2282.27 1954.78 2278.44 1950.89 2273.25 1948.95 2266.72 1948.95 2262.1 1948.95 2258.02 1949.91 2254.47 1951.82 2250.92 1953.74 2247.96 1956.49 2245.6 1960.09L2245.6 2021.88 2228.53 2021.88 2228.53 1903.71Z" fill="url(#fill1)" fill-rule="evenodd"/></g></svg>